<svg width="109" height="148" viewBox="0 0 109 148" fill="none" xmlns="http://www.w3.org/2000/svg">
<path d="M54.5 0.272949L47.7812 7.79795C47.7812 7.79795 36.3146 20.7875 24.7583 37.6292C13.2021 54.4709 0.75 74.6271 0.75 93.9771C0.75 108.232 6.41293 121.904 16.493 131.984C26.5731 142.064 40.2446 147.727 54.5 147.727C68.7554 147.727 82.4269 142.064 92.507 131.984C102.587 121.904 108.25 108.232 108.25 93.9771C108.25 74.6271 95.7979 54.4709 84.2417 37.6292C77.1138 27.2754 69.4282 17.317 61.2187 7.79795L54.5 0.272949ZM54.5 28.3125C58.4417 32.9709 62.025 36.8229 69.55 47.7521C80.3896 63.5188 90.3333 83.5854 90.3333 93.9771C90.3333 113.865 74.3875 129.81 54.5 129.81C34.6125 129.81 18.6667 113.865 18.6667 93.9771C18.6667 83.5854 28.6104 63.5188 39.45 47.7521C46.975 36.8229 50.5583 32.9709 54.5 28.3125Z" fill="#21B2FD"/>
</svg>
