<svg width="215" height="216" viewBox="0 0 215 216" fill="none" xmlns="http://www.w3.org/2000/svg">
<path d="M107.5 0.5C109.536 0.5 111.49 1.30899 112.93 2.749C114.37 4.18901 115.179 6.14209 115.179 8.17857V23.5357C115.179 25.5722 114.37 27.5253 112.93 28.9653C111.49 30.4053 109.536 31.2143 107.5 31.2143C105.464 31.2143 103.51 30.4053 102.07 28.9653C100.63 27.5253 99.8214 25.5722 99.8214 23.5357V8.17857C99.8214 6.14209 100.63 4.18901 102.07 2.749C103.51 1.30899 105.464 0.5 107.5 0.5ZM107.5 154.071C119.719 154.071 131.437 149.217 140.077 140.577C148.717 131.937 153.571 120.219 153.571 108C153.571 95.7811 148.717 84.0626 140.077 75.4226C131.437 66.7825 119.719 61.9286 107.5 61.9286C95.2811 61.9286 83.5626 66.7825 74.9226 75.4226C66.2825 84.0626 61.4286 95.7811 61.4286 108C61.4286 120.219 66.2825 131.937 74.9226 140.577C83.5626 149.217 95.2811 154.071 107.5 154.071ZM107.5 138.714C99.3541 138.714 91.5418 135.478 85.7817 129.718C80.0217 123.958 76.7857 116.146 76.7857 108C76.7857 99.8541 80.0217 92.0418 85.7817 86.2817C91.5418 80.5217 99.3541 77.2857 107.5 77.2857C115.646 77.2857 123.458 80.5217 129.218 86.2817C134.978 92.0418 138.214 99.8541 138.214 108C138.214 116.146 134.978 123.958 129.218 129.718C123.458 135.478 115.646 138.714 107.5 138.714ZM207.321 115.679C209.358 115.679 211.311 114.87 212.751 113.43C214.191 111.99 215 110.036 215 108C215 105.964 214.191 104.01 212.751 102.57C211.311 101.13 209.358 100.321 207.321 100.321H191.964C189.928 100.321 187.975 101.13 186.535 102.57C185.095 104.01 184.286 105.964 184.286 108C184.286 110.036 185.095 111.99 186.535 113.43C187.975 114.87 189.928 115.679 191.964 115.679H207.321ZM107.5 184.786C109.536 184.786 111.49 185.595 112.93 187.035C114.37 188.475 115.179 190.428 115.179 192.464V207.821C115.179 209.858 114.37 211.811 112.93 213.251C111.49 214.691 109.536 215.5 107.5 215.5C105.464 215.5 103.51 214.691 102.07 213.251C100.63 211.811 99.8214 209.858 99.8214 207.821V192.464C99.8214 190.428 100.63 188.475 102.07 187.035C103.51 185.595 105.464 184.786 107.5 184.786ZM23.0357 115.679C25.0722 115.679 27.0253 114.87 28.4653 113.43C29.9053 111.99 30.7143 110.036 30.7143 108C30.7143 105.964 29.9053 104.01 28.4653 102.57C27.0253 101.13 25.0722 100.321 23.0357 100.321H7.67857C5.64209 100.321 3.68901 101.13 2.249 102.57C0.80899 104.01 0 105.964 0 108C0 110.036 0.80899 111.99 2.249 113.43C3.68901 114.87 5.64209 115.679 7.67857 115.679H23.0357ZM32.9564 33.4564C33.6697 32.7413 34.517 32.174 35.4499 31.7869C36.3828 31.3998 37.3829 31.2006 38.3929 31.2006C39.4029 31.2006 40.4029 31.3998 41.3358 31.7869C42.2687 32.174 43.116 32.7413 43.8293 33.4564L59.1864 48.8136C59.9003 49.5275 60.4667 50.375 60.853 51.3078C61.2394 52.2406 61.4383 53.2404 61.4383 54.25C61.4383 55.2596 61.2394 56.2594 60.853 57.1922C60.4667 58.125 59.9003 58.9725 59.1864 59.6864C58.4725 60.4003 57.625 60.9667 56.6922 61.353C55.7594 61.7394 54.7596 61.9383 53.75 61.9383C52.7404 61.9383 51.7406 61.7394 50.8078 61.353C49.875 60.9667 49.0275 60.4003 48.3136 59.6864L32.9564 44.3293C32.2413 43.616 31.674 42.7687 31.2869 41.8358C30.8998 40.9029 30.7006 39.9029 30.7006 38.8929C30.7006 37.8829 30.8998 36.8828 31.2869 35.9499C31.674 35.017 32.2413 34.1697 32.9564 33.4564ZM43.8293 182.544C43.1164 183.257 42.2698 183.824 41.338 184.211C40.4061 184.598 39.4072 184.797 38.3983 184.798C37.3894 184.798 36.3902 184.6 35.4578 184.215C34.5254 183.829 33.678 183.264 32.9641 182.551C32.2502 181.838 31.6837 180.992 31.2969 180.06C30.9102 179.128 30.7107 178.129 30.71 177.12C30.7093 176.111 30.9073 175.112 31.2928 174.18C31.6782 173.247 32.2435 172.4 32.9564 171.686L48.3136 156.329C49.0265 155.615 49.873 155.048 50.8049 154.662C51.7367 154.275 52.7356 154.076 53.7446 154.075C54.7535 154.074 55.7527 154.272 56.6851 154.658C57.6175 155.043 58.4648 155.608 59.1787 156.321C59.8927 157.034 60.4592 157.881 60.8459 158.813C61.2327 159.744 61.4321 160.743 61.4328 161.752C61.4336 162.761 61.2355 163.76 60.8501 164.693C60.4647 165.625 59.8993 166.473 59.1864 167.186L43.8293 182.544ZM182.044 33.4564C181.33 32.7413 180.483 32.174 179.55 31.7869C178.617 31.3998 177.617 31.2006 176.607 31.2006C175.597 31.2006 174.597 31.3998 173.664 31.7869C172.731 32.174 171.884 32.7413 171.171 33.4564L155.814 48.8136C154.372 50.2554 153.562 52.2109 153.562 54.25C153.562 56.2891 154.372 58.2446 155.814 59.6864C157.255 61.1283 159.211 61.9383 161.25 61.9383C163.289 61.9383 165.245 61.1283 166.686 59.6864L182.044 44.3293C182.759 43.616 183.326 42.7687 183.713 41.8358C184.1 40.9029 184.299 39.9029 184.299 38.8929C184.299 37.8829 184.1 36.8828 183.713 35.9499C183.326 35.017 182.759 34.1697 182.044 33.4564ZM171.171 182.544C172.611 183.985 174.564 184.796 176.602 184.798C178.639 184.799 180.594 183.991 182.036 182.551C183.478 181.111 184.289 179.158 184.29 177.12C184.291 175.083 183.483 173.128 182.044 171.686L166.686 156.329C165.247 154.887 163.293 154.076 161.255 154.075C159.218 154.073 157.263 154.881 155.821 156.321C154.379 157.761 153.569 159.715 153.567 161.752C153.566 163.79 154.374 165.745 155.814 167.186L171.171 182.544Z" fill="#FFC700"/>
</svg>
